<svg version="1.0" xmlns="http://www.w3.org/2000/svg"  width="600.000000pt" height="600.000000pt" viewBox="0 0 600.000000 600.000000"  preserveAspectRatio="xMidYMid meet"> <g transform="translate(0.000000,600.000000) scale(0.050000,-0.050000)" fill="#ffffff" stroke="none"> <path d="M5810 11832 c-154 -88 -960 -508 -1625 -846 l-345 -176 0 -480 c1 -564 -27 -499 271 -651 462 -238 742 -377 798 -399 76 -28 99 -13 -519 -341 -1447 -766 -1498 -797 -1529 -918 -23 -93 -48 -2403 -26 -2436 13 -18 31 -2 63 55 24 44 38 80 31 80 -8 0 -5 11 6 25 11 14 26 205 33 425 18 526 32 697 59 715 16 11 13 21 -9 35 -41 24 -51 437 -17 685 16 117 16 166 1 171 -30 10 -28 59 3 69 19 6 18 17 -5 46 -17 21 -19 30 -5 22 17 -11 25 0 25 34 0 31 21 66 55 91 30 23 70 55 88 73 25 24 35 26 41 6 6 -17 25 -7 57 29 26 30 58 51 71 46 14 -5 30 4 36 21 7 16 20 25 30 19 9 -7 40 6 68 28 28 22 65 40 83 40 18 0 38 14 44 32 8 19 27 27 50 21 22 -5 37 1 37 16 0 15 23 25 55 24 33 -1 53 8 50 23 -3 13 3 24 14 24 10 0 30 11 45 25 33 32 372 205 403 206 13 0 21 12 18 25 -4 21 3 25 45 24 6 -1 38 13 71 30 33 18 70 25 83 18 15 -10 19 -4 11 17 -12 30 76 66 140 57 14 -2 25 12 25 32 1 39 130 115 162 95 11 -7 14 -29 8 -49 -8 -26 1 -41 29 -50 23 -7 41 -26 41 -43 0 -16 -7 -25 -15 -20 -8 5 -12 -45 -8 -111 4 -76 -1 -116 -13 -109 -11 7 -24 -5 -30 -27 -7 -26 0 -40 18 -40 15 0 28 -9 28 -20 0 -11 -13 -20 -29 -20 -18 0 -25 -12 -18 -30 6 -16 1 -30 -12 -30 -13 0 -18 -9 -11 -20 7 -11 2 -20 -11 -20 -14 0 -41 -19 -61 -42 -20 -23 -45 -36 -55 -30 -11 7 -36 -3 -55 -23 -19 -19 -38 -32 -42 -29 -4 4 -68 -23 -142 -59 -74 -35 -139 -63 -145 -62 -7 1 -37 -19 -68 -46 -32 -27 -70 -49 -86 -49 -43 0 -91 -54 -60 -68 14 -6 -4 -6 -40 0 -40 7 -65 3 -65 -10 0 -12 -9 -22 -20 -22 -22 0 -89 -51 -137 -105 -18 -19 -42 -35 -53 -35 -31 0 -93 -145 -71 -167 20 -20 5 -76 -28 -98 -14 -10 -13 -14 3 -15 13 0 33 15 43 34 13 23 16 5 8 -59 -5 -51 -4 -109 4 -129 32 -81 3 -1106 -32 -1128 -14 -9 -17 -40 -8 -87 8 -46 5 -84 -10 -102 -12 -15 -17 -35 -11 -45 29 -47 -18 -78 -526 -337 -301 -154 -332 -165 -371 -140 -23 16 -141 80 -262 143 -394 207 -550 290 -587 314 -30 18 -76 1 -264 -99 -126 -66 -372 -194 -548 -285 -176 -91 -330 -173 -343 -183 -18 -14 -23 -346 -20 -1303 l3 -1283 140 -73 c77 -39 248 -129 380 -198 132 -69 339 -177 460 -240 121 -63 355 -185 520 -271 165 -86 368 -192 450 -235 l151 -78 119 69 c66 38 246 135 400 215 343 179 415 219 438 241 10 9 16 354 14 783 l-5 767 277 142 c288 147 567 295 636 336 155 92 270 91 270 -2 0 -11 32 -35 70 -53 39 -18 70 -43 70 -54 0 -12 21 -16 50 -8 28 7 50 4 50 -6 0 -16 86 -60 185 -93 22 -7 30 -23 21 -45 -10 -27 -6 -30 22 -14 42 23 291 -90 252 -114 -15 -9 -2 -22 37 -36 45 -16 63 -15 70 2 7 18 10 18 11 0 1 -15 16 -19 35 -12 19 7 29 5 22 -6 -12 -20 22 -55 64 -64 55 -12 144 19 133 47 -6 16 0 23 16 17 14 -5 37 4 51 21 26 32 71 23 50 -10 -26 -42 28 -15 63 31 21 28 47 50 59 50 12 0 43 23 69 50 36 38 52 44 65 25 13 -18 21 -19 27 -2 6 12 28 18 49 12 31 -7 37 -2 27 23 -7 19 -5 32 5 30 9 -3 44 7 77 20 33 14 94 35 135 48 41 13 75 31 75 40 0 9 -11 11 -25 3 -14 -7 5 16 41 50 36 34 60 72 52 84 -30 49 148 -9 332 -108 226 -122 682 -349 753 -376 l49 -19 -6 -755 c-4 -415 -11 -767 -16 -781 -11 -28 137 -115 620 -368 149 -78 286 -156 306 -173 32 -28 41 -28 90 1 30 17 248 132 484 256 418 219 581 305 1060 559 127 68 295 156 375 196 l145 74 -5 1289 -5 1288 -150 79 c-82 43 -249 130 -370 194 -121 63 -312 162 -424 220 l-205 104 -65 -49 c-36 -27 -228 -133 -426 -234 -198 -101 -369 -192 -379 -202 -25 -23 -98 -23 -122 0 -10 10 -95 59 -189 108 -239 127 -484 260 -529 287 -40 24 -63 147 -28 147 11 0 14 9 7 19 -6 11 -11 385 -11 830 1 458 -6 811 -16 811 -10 0 -29 26 -42 58 -13 32 -44 63 -68 70 -57 14 -59 16 -87 41 -49 42 -78 61 -107 68 -16 3 -33 12 -39 20 -10 13 -226 123 -280 143 -16 6 -79 37 -140 69 -60 32 -122 61 -137 63 -14 3 -59 27 -100 54 -40 28 -93 56 -118 63 -25 8 -45 22 -45 32 0 10 -13 13 -30 6 -18 -6 -30 0 -30 16 -1 22 -4 22 -18 -1 -31 -49 -56 36 -61 207 -2 88 -9 167 -15 177 -19 31 16 271 42 280 13 6 67 -30 119 -78 52 -48 107 -88 122 -88 15 0 31 -9 35 -21 6 -18 42 -31 101 -37 8 -1 15 -17 15 -34 0 -26 13 -30 61 -21 34 7 56 5 51 -4 -10 -15 20 -35 108 -72 69 -29 119 -65 107 -78 -8 -7 3 -13 22 -13 70 0 208 -83 196 -118 -8 -25 -5 -27 14 -9 30 27 80 13 115 -32 14 -17 25 -23 25 -14 1 10 18 -4 39 -29 21 -27 62 -48 95 -50 89 -5 92 -6 80 -38 -7 -18 0 -30 16 -30 15 0 32 11 38 25 7 17 10 16 12 -5 2 -40 195 -143 210 -112 6 12 8 2 3 -23 -7 -38 -2 -43 39 -33 34 9 62 -3 104 -45 32 -31 70 -60 86 -64 16 -3 36 -19 44 -34 9 -15 28 -39 42 -53 36 -37 56 -174 31 -220 -14 -27 -14 -57 0 -98 23 -68 8 -140 -20 -95 -13 21 -17 19 -18 -8 0 -19 14 -35 30 -35 29 0 41 -237 39 -744 0 -51 7 -89 15 -83 9 5 16 -10 16 -33 0 -25 -9 -37 -22 -29 -15 10 -18 -27 -10 -124 6 -75 15 -245 18 -377 9 -285 20 -391 45 -431 10 -16 19 -36 19 -44 0 -8 8 -13 19 -10 31 8 13 2331 -18 2405 -37 87 -69 109 -401 285 -165 87 -376 199 -470 249 -706 377 -1072 567 -1145 594 -80 30 -68 56 50 111 58 27 191 95 295 151 300 163 654 340 678 340 15 0 22 141 22 465 0 256 6 484 12 507 9 35 -5 51 -85 92 -54 27 -254 131 -447 230 -192 99 -570 293 -840 431 -269 138 -541 278 -603 313 -133 73 -108 71 -207 14z m315 -251 c42 -25 89 -40 106 -33 18 6 26 3 19 -8 -7 -11 0 -20 14 -20 15 0 43 -19 63 -42 19 -23 48 -37 63 -31 15 6 30 4 34 -5 13 -33 454 -246 478 -231 15 10 19 7 10 -8 -8 -13 -7 -23 3 -23 10 0 37 -18 61 -41 25 -23 53 -36 63 -30 23 15 121 -29 121 -54 0 -10 11 -15 25 -10 13 4 47 -13 75 -39 27 -27 75 -53 106 -60 38 -8 53 -21 45 -40 -7 -18 -1 -26 14 -20 14 5 57 -5 95 -21 82 -35 323 -85 345 -72 8 5 15 0 15 -10 0 -40 -5 -43 -1680 -928 -256 -135 -251 -121 -270 -668 l-14 -383 217 -116 c119 -64 280 -151 357 -192 77 -42 289 -152 470 -244 182 -93 504 -258 716 -366 l387 -198 -2 -844 c-2 -745 1 -844 28 -844 40 0 40 -52 1 -67 -25 -10 -30 -81 -30 -470 l0 -459 -45 -11 c-126 -32 -130 -66 -14 -115 60 -25 159 -73 219 -105 414 -218 769 -393 799 -393 20 0 464 216 988 480 1038 523 1035 522 971 397 -41 -81 -42 -107 -45 -1088 -2 -553 -10 -995 -18 -982 -8 13 -13 -37 -11 -111 3 -137 -39 -213 -120 -215 -15 -1 -21 -9 -15 -19 6 -10 -7 -14 -29 -8 -22 6 -40 2 -40 -9 0 -11 -27 -31 -60 -45 -33 -14 -60 -33 -60 -42 0 -10 -10 -18 -22 -18 -12 0 -83 -31 -160 -69 -76 -39 -152 -64 -169 -58 -21 8 -35 -2 -42 -30 -7 -23 -19 -38 -28 -33 -9 6 -29 -3 -46 -20 -17 -16 -45 -30 -62 -30 -18 0 -37 -13 -44 -30 -6 -16 -19 -25 -27 -20 -9 6 -30 -3 -47 -20 -17 -16 -45 -30 -62 -30 -18 0 -37 -14 -44 -30 -6 -16 -24 -30 -40 -30 -17 0 -49 -11 -73 -24 -24 -13 -57 -25 -74 -25 -16 -1 -28 -13 -24 -28 3 -18 -8 -22 -37 -13 -29 9 -51 2 -70 -23 -25 -32 -31 -33 -50 -7 -17 24 -19 21 -9 -15 9 -31 4 -45 -16 -45 -15 0 -44 -18 -64 -40 -22 -24 -51 -36 -72 -29 -24 7 -66 -21 -135 -90 -56 -56 -96 -101 -90 -101 7 0 0 -14 -14 -32 -50 -59 -55 29 -68 1133 -16 1333 -10 1299 -244 1418 -54 27 -128 68 -167 92 -38 23 -177 98 -309 167 -131 69 -277 152 -323 184 -108 73 -89 76 -310 -44 -103 -56 -291 -155 -418 -220 -126 -64 -284 -147 -350 -184 -66 -37 -262 -140 -436 -231 -174 -90 -351 -186 -395 -213 -81 -52 -139 -64 -139 -30 0 11 -9 20 -20 20 -20 0 -353 164 -708 348 -98 50 -190 92 -205 92 -15 0 -27 9 -27 20 0 11 -196 119 -435 240 -239 121 -451 231 -470 245 -29 21 -47 18 -100 -12 -36 -21 -263 -145 -505 -277 -242 -132 -457 -255 -478 -273 -88 -77 -90 -109 -113 -1296 -22 -1183 -22 -1172 -71 -1154 -16 7 -25 16 -20 22 22 22 -145 149 -281 214 -35 16 -66 37 -70 46 -4 9 -77 51 -162 92 -85 42 -155 85 -155 96 0 11 -18 14 -40 7 -29 -9 -40 -4 -40 21 0 20 -11 29 -27 23 -16 -6 -85 19 -155 57 -71 37 -184 96 -253 132 -84 44 -125 78 -125 102 0 30 -7 33 -39 16 -38 -21 -101 -10 -101 17 0 24 -158 105 -180 92 -10 -6 -51 20 -90 59 -39 39 -79 71 -88 71 -26 0 -40 450 -41 1360 -1 775 -7 896 -51 1005 -28 69 55 32 977 -435 567 -287 951 -470 986 -470 32 0 186 67 347 150 160 83 391 201 515 264 243 122 254 132 169 162 l-57 19 9 462 9 462 -51 19 c-74 29 -80 55 -19 80 l55 23 -7 742 c-3 410 1 749 11 759 20 20 219 -159 211 -187 -4 -10 4 -12 15 -5 12 7 70 -15 130 -48 60 -34 124 -62 141 -62 17 0 26 -9 19 -20 -7 -11 1 -20 16 -20 44 0 255 -132 238 -149 -8 -8 0 -12 17 -8 27 6 128 -35 279 -115 194 -102 251 -135 256 -149 4 -9 20 -12 35 -6 18 7 29 -1 29 -22 0 -18 9 -28 20 -21 12 7 58 -15 104 -49 46 -33 96 -61 110 -61 14 0 26 -9 26 -20 0 -12 22 -15 53 -7 36 9 49 6 39 -9 -7 -13 25 -44 77 -74 49 -29 95 -70 101 -91 7 -22 22 -39 33 -39 12 0 16 -13 10 -29 -6 -17 -2 -35 9 -42 14 -9 18 -133 11 -361 -5 -191 -2 -348 6 -348 9 0 11 -29 4 -65 -12 -62 -13 -220 -6 -791 2 -136 -1 -254 -7 -263 -5 -9 4 -55 20 -101 17 -47 29 -100 28 -118 -1 -18 -9 -10 -18 18 -13 40 -16 30 -18 -50 -1 -71 4 -91 18 -70 16 24 19 21 20 -16 0 -58 54 -164 83 -164 16 0 20 329 13 1208 l-10 1207 -48 96 c-39 78 -70 107 -168 158 -167 88 -865 462 -950 510 -268 150 -793 429 -869 462 -112 50 -113 66 -10 107 44 18 348 173 675 345 327 172 756 398 954 502 364 192 404 219 369 254 -11 11 -19 180 -19 390 0 400 -16 501 -85 546 -52 33 -284 159 -865 465 -850 448 -939 500 -919 532 7 11 27 18 46 16 18 -2 47 1 63 8 17 7 78 27 136 46 67 21 103 43 97 58 -7 17 13 22 70 18 45 -4 74 1 67 11 -6 11 7 29 29 41 23 12 41 16 41 10 0 -6 20 7 44 29 24 23 60 41 81 41 21 0 32 9 25 20 -7 11 10 20 39 20 28 0 51 9 51 19 0 11 36 30 80 43 44 14 80 32 80 41 0 17 140 85 165 80 8 -2 15 6 15 17 0 11 7 19 15 17 27 -4 145 51 145 69 0 9 8 12 17 6 9 -6 59 16 110 48 51 33 93 53 93 46 0 -6 18 8 39 33 22 25 52 41 67 35 15 -6 40 6 54 26 14 20 43 33 64 29 21 -4 43 5 49 20 5 16 45 34 89 41 43 8 78 22 78 31 0 18 41 -3 205 -100z m-2018 -1071 c17 -16 44 -24 62 -18 20 8 31 1 31 -20 0 -18 14 -32 31 -32 18 0 25 -10 18 -22 -10 -15 0 -18 28 -9 31 10 43 5 43 -18 0 -17 9 -32 20 -33 67 -9 121 -41 107 -63 -9 -14 -1 -17 19 -9 18 7 46 -1 62 -17 17 -16 37 -28 46 -27 9 2 21 1 26 -1 6 -2 24 -7 40 -11 60 -13 129 -48 100 -50 -32 -2 113 -80 149 -80 12 0 33 -18 46 -40 14 -22 42 -40 63 -40 41 0 208 -80 219 -105 3 -8 18 -15 33 -15 14 0 31 -14 38 -32 7 -18 25 -27 42 -21 16 6 42 -2 58 -18 16 -16 44 -29 62 -29 18 0 28 -8 22 -17 -6 -9 21 -31 59 -49 38 -19 69 -43 69 -55 0 -12 11 -19 25 -14 33 11 115 -101 115 -158 0 -25 11 -69 24 -97 19 -42 18 -56 -3 -69 -34 -21 -11 -89 24 -69 20 11 20 8 0 -13 -14 -15 -25 -69 -25 -121 0 -58 10 -98 25 -103 18 -7 16 -20 -10 -49 -19 -21 -35 -54 -35 -71 0 -32 -30 -60 -70 -67 -41 -7 -278 -151 -311 -189 -19 -22 -43 -38 -53 -35 -22 7 -167 -65 -196 -96 -56 -61 -148 -108 -163 -83 -31 47 -12 676 21 712 61 68 73 136 31 174 -22 19 -39 47 -39 61 0 15 -13 22 -29 16 -16 -6 -45 -1 -65 12 -33 21 -33 22 4 11 l40 -11 -40 29 c-22 16 -51 39 -64 50 -13 12 -37 21 -53 21 -15 0 -40 14 -54 32 -15 18 -46 28 -72 22 -25 -4 -42 -2 -38 5 5 7 -25 30 -65 51 -41 21 -87 49 -104 62 -16 13 -59 30 -94 37 -35 7 -74 26 -87 42 -13 16 -34 29 -46 29 -73 0 -141 95 -136 187 4 57 -2 93 -15 93 -24 0 -32 423 -9 447 21 20 41 16 74 -17z m3664 -18 c46 -47 16 -607 -35 -640 -3 -2 -49 -26 -101 -53 -56 -29 -91 -59 -86 -74 5 -14 1 -25 -10 -25 -10 0 -19 8 -19 18 0 11 -54 -8 -120 -41 -66 -33 -120 -68 -120 -79 0 -10 -14 -18 -31 -18 -19 0 -26 9 -17 23 9 15 5 18 -9 9 -13 -8 -18 -23 -12 -33 6 -11 -1 -19 -17 -19 -16 0 -50 -17 -76 -38 -27 -20 -66 -41 -88 -46 -22 -5 -37 -20 -34 -35 4 -18 -12 -23 -56 -17 -46 7 -59 2 -51 -18 5 -14 -15 -51 -46 -81 -30 -31 -52 -71 -48 -90 5 -22 -4 -35 -24 -35 -17 0 -31 -9 -31 -20 0 -11 12 -20 28 -20 40 0 65 -360 31 -443 -20 -47 -20 -64 -2 -75 17 -11 19 -29 5 -64 -14 -34 -20 -38 -21 -13 -1 39 -33 48 -45 12 -5 -15 -27 -12 -71 10 -35 18 -81 33 -104 33 -23 0 -39 11 -36 25 3 14 -6 23 -20 20 -14 -3 -25 2 -25 10 0 9 -74 52 -165 95 -91 44 -168 87 -172 95 -4 9 -20 30 -37 46 -24 24 -31 79 -31 245 0 345 12 404 94 479 39 36 71 75 71 86 0 12 9 16 20 9 11 -7 20 2 20 19 0 17 10 31 21 31 12 0 15 -10 8 -22 -10 -15 -1 -15 29 1 24 13 51 18 61 12 10 -7 24 7 31 29 7 22 21 36 30 30 10 -6 23 -1 30 10 7 11 20 16 29 11 9 -6 32 11 52 37 20 27 48 44 62 38 29 -11 226 105 253 149 10 16 33 22 55 15 27 -9 39 -3 39 19 0 37 32 41 47 6 6 -15 10 -12 11 9 2 28 77 72 99 58 3 -3 22 14 42 36 19 23 41 35 48 28 7 -7 13 -2 13 11 0 13 14 23 30 23 17 0 30 9 30 21 0 13 26 16 67 8 57 -10 76 -3 136 54 56 54 206 155 233 157 4 0 19 -13 35 -28z m-4120 -4718 c3 -19 -3 -34 -13 -34 -26 0 -22 -55 4 -64 34 -11 48 -264 18 -335 -13 -34 -34 -55 -46 -47 -13 8 -16 0 -8 -21 8 -21 3 -33 -17 -33 -16 0 -29 -10 -29 -22 0 -12 -12 -18 -27 -12 -15 6 -74 -16 -132 -47 -58 -32 -116 -52 -129 -45 -12 7 -16 6 -9 -2 16 -18 -46 -89 -67 -78 -24 13 -138 -54 -126 -74 6 -10 -25 -28 -69 -40 -43 -11 -85 -30 -91 -41 -20 -31 -150 -23 -150 9 0 15 -15 33 -33 40 -29 11 -29 9 -5 -21 21 -26 5 -22 -62 14 -49 27 -97 60 -106 73 -8 13 -28 19 -45 13 -16 -6 -29 -1 -29 12 0 13 -7 19 -16 13 -21 -13 -148 63 -170 101 -10 17 -32 24 -54 17 -20 -6 -43 -2 -50 9 -7 12 -46 35 -86 52 -45 19 -64 36 -50 45 13 8 -12 16 -55 17 -63 1 -92 16 -141 69 -34 38 -56 57 -49 43 14 -27 -7 -32 -57 -13 -18 7 -28 19 -22 27 5 9 -26 31 -69 51 -50 22 -74 44 -67 62 7 20 -7 28 -47 29 -53 0 -54 2 -21 28 25 18 29 32 14 41 -15 9 -11 22 14 40 19 15 43 22 52 16 9 -5 32 3 50 18 73 60 346 135 319 87 -8 -13 183 -111 217 -111 16 0 34 -13 40 -29 6 -16 22 -24 35 -19 22 8 54 -11 157 -97 23 -19 63 -35 89 -35 26 0 47 -7 47 -16 0 -8 23 -17 51 -20 28 -2 70 -14 92 -26 58 -30 202 -5 255 45 39 36 71 50 127 55 8 1 34 21 57 44 39 39 71 53 133 56 14 1 25 15 25 31 0 16 18 29 40 30 22 0 57 2 78 2 23 1 48 26 63 61 18 44 30 54 50 37 18 -15 33 -13 52 9 33 37 62 31 68 -14z m6299 6 c7 -11 30 -20 52 -20 22 0 35 -8 29 -19 -17 -26 23 -46 102 -51 73 -4 166 -79 121 -97 -13 -5 -1 -11 26 -12 l50 -2 -50 -40 c-27 -22 -68 -56 -90 -75 -81 -71 -144 -102 -165 -81 -14 14 -25 14 -34 -1 -7 -12 -2 -22 13 -23 32 -1 -73 -59 -124 -69 -21 -4 -58 -19 -84 -33 -25 -14 -56 -23 -68 -21 -13 3 -34 -9 -48 -26 -17 -21 -33 -24 -49 -10 -18 14 -32 5 -51 -30 -15 -28 -39 -50 -53 -50 -15 0 -27 -9 -27 -20 0 -11 -19 -20 -43 -20 -23 0 -78 -32 -121 -71 -44 -40 -91 -67 -106 -62 -15 6 -38 -2 -51 -18 -13 -16 -40 -29 -60 -29 -20 0 -50 -13 -66 -30 -41 -41 -219 19 -310 105 -49 47 -103 69 -103 42 0 -14 -11 -10 -25 10 -14 19 -46 36 -70 38 -25 2 -45 16 -45 30 0 15 -10 21 -21 14 -12 -7 -42 4 -65 26 -24 22 -73 56 -108 76 -35 20 -60 43 -55 51 5 9 1 21 -11 28 -41 25 -18 349 31 446 6 9 198 -78 209 -95 5 -9 113 -67 238 -129 245 -120 337 -137 421 -79 26 19 41 23 33 11 -9 -16 -3 -19 17 -12 17 7 31 20 31 30 0 10 14 18 31 18 19 0 26 -10 17 -25 -8 -14 7 -4 32 22 25 26 51 38 58 28 7 -11 29 -13 52 -4 22 9 28 17 12 18 -19 1 -13 14 18 41 45 39 77 48 140 42 27 -3 27 -1 0 17 -16 11 -23 21 -15 21 28 0 45 8 185 83 148 80 180 89 200 57z m-8568 -275 c54 -19 98 -41 98 -50 0 -8 11 -15 25 -15 24 0 194 -79 215 -100 15 -15 353 -180 369 -180 7 0 28 -14 46 -32 17 -17 52 -28 76 -23 34 7 42 1 34 -21 -7 -18 -3 -25 9 -18 18 12 42 -3 140 -86 13 -11 38 -20 54 -20 16 0 36 -10 43 -22 8 -12 35 -18 61 -13 28 6 48 0 48 -13 0 -23 29 -44 154 -114 l69 -39 103 55 c57 31 109 60 114 66 26 27 419 220 447 220 18 0 33 7 33 16 0 18 168 104 203 104 13 0 17 -21 9 -55 -34 -149 -33 -185 3 -186 32 0 31 -3 -4 -30 -21 -16 -31 -29 -21 -29 9 0 11 -5 5 -12 -6 -6 -31 -1 -55 12 -32 17 -50 18 -66 2 -16 -16 -13 -22 12 -22 19 0 34 -8 34 -19 0 -19 -78 -52 -105 -45 -8 2 -15 -4 -15 -13 0 -10 -38 -25 -85 -33 -79 -14 -81 -16 -35 -32 38 -13 28 -16 -43 -10 -67 5 -91 0 -84 -17 5 -14 -5 -36 -22 -50 -20 -17 -31 -18 -31 -4 0 12 -28 6 -65 -15 -36 -21 -98 -43 -138 -50 -40 -7 -77 -24 -83 -38 -16 -42 -148 -41 -172 0 -14 24 -27 29 -37 15 -10 -15 -30 -14 -65 4 -29 16 -37 27 -20 28 49 1 -73 59 -137 64 -33 3 -88 30 -122 61 -35 31 -78 55 -97 53 -67 -7 -86 2 -150 66 -44 44 -80 63 -112 58 -33 -4 -42 1 -31 18 11 18 3 22 -27 14 -25 -6 -46 0 -52 16 -5 15 -43 33 -83 40 -40 8 -77 26 -83 42 -6 15 -28 27 -49 27 -67 0 -282 119 -270 150 9 23 1 24 -42 8 -44 -17 -59 -14 -79 15 -14 19 -26 26 -26 16 0 -11 -8 -7 -17 7 -9 15 -30 29 -45 32 -70 15 -102 37 -75 54 19 13 14 17 -18 18 -25 0 -45 9 -45 19 0 11 13 15 28 9 26 -10 56 14 128 101 32 38 28 38 146 -4z m9202 0 c-25 -9 18 -65 50 -65 9 0 28 -18 41 -40 27 -43 -103 -154 -158 -136 -14 5 -42 -5 -62 -23 -20 -17 -41 -29 -46 -26 -5 3 -26 -12 -48 -34 -21 -21 -79 -44 -130 -52 -55 -8 -91 -24 -91 -40 0 -21 -112 -75 -163 -78 -8 -1 -37 -21 -65 -46 -29 -25 -52 -36 -52 -25 0 11 -9 20 -20 20 -11 0 -18 -11 -15 -25 3 -14 -8 -25 -25 -25 -16 0 -34 -5 -40 -12 -19 -23 -138 -78 -169 -78 -17 0 -31 -9 -31 -20 0 -24 -151 -103 -166 -87 -7 6 -43 -7 -80 -31 -38 -23 -83 -42 -101 -42 -18 0 -33 -10 -33 -22 0 -12 -14 -17 -31 -10 -17 6 -26 3 -19 -7 22 -36 -72 -65 -167 -52 -104 14 -243 68 -243 94 0 9 -12 17 -28 17 -15 0 -38 13 -51 29 -14 17 -31 29 -38 28 -7 -1 -22 0 -33 3 -11 3 -29 7 -40 9 -11 3 -38 6 -60 8 -33 3 -35 7 -10 23 30 20 1 29 -78 25 -37 -2 -84 46 -66 66 8 8 3 9 -10 2 -41 -24 -128 29 -115 70 8 27 1 37 -25 37 -26 1 -29 5 -10 17 30 19 37 75 16 138 -26 79 142 8 702 -295 124 -67 184 -67 246 1 6 6 64 38 130 72 66 33 138 70 160 81 155 81 226 117 265 135 25 12 45 28 45 36 0 8 17 15 37 15 21 0 60 18 88 40 28 22 64 40 80 40 16 0 53 19 82 41 29 23 53 37 53 31 0 -13 236 102 278 136 41 32 229 89 251 76 11 -6 9 -15 -5 -19z m-6510 -798 c47 -18 86 -42 86 -55 0 -12 8 -10 18 6 14 22 22 19 41 -15 12 -24 34 -43 48 -43 14 0 36 -11 50 -25 24 -24 33 -27 92 -32 15 -2 44 -18 62 -37 19 -19 48 -36 65 -39 60 -9 85 -95 34 -114 -16 -7 -30 -26 -30 -44 0 -17 -10 -25 -21 -18 -12 7 -39 -3 -60 -22 -21 -19 -54 -36 -74 -38 -19 -2 -86 -26 -148 -55 -62 -29 -140 -58 -173 -65 -33 -7 -65 -26 -71 -41 -6 -15 -43 -34 -82 -41 -39 -7 -71 -25 -71 -40 0 -16 -16 -24 -41 -19 -22 4 -35 0 -29 -10 6 -10 -5 -27 -25 -38 -19 -12 -27 -21 -17 -21 10 -1 -4 -20 -30 -43 l-48 -41 0 -469 c0 -257 -7 -468 -15 -468 -8 0 -15 -18 -15 -40 0 -22 9 -40 20 -40 25 0 27 -74 2 -83 -10 -4 -22 -83 -27 -176 -11 -180 -34 -219 -142 -236 -45 -7 -216 -101 -235 -129 -15 -23 -220 -77 -241 -64 -10 6 -11 33 -4 61 7 28 3 57 -7 64 -13 8 -15 147 -5 393 8 209 11 387 6 395 -5 8 2 15 15 15 18 0 20 55 8 235 -19 266 -19 338 -3 605 6 105 11 215 12 244 0 41 8 52 31 43 21 -8 30 1 30 30 0 25 22 52 55 68 30 15 52 41 48 56 -3 16 0 23 7 16 11 -12 127 43 339 160 33 18 77 48 98 67 22 19 45 31 53 26 8 -5 31 4 52 20 21 16 59 29 85 29 42 1 45 5 20 34 -25 31 -19 33 73 22 55 -6 84 -6 65 -1 -20 5 -30 17 -24 28 15 24 24 23 123 -15z m3893 -28 c59 -49 177 -119 203 -119 15 0 33 -9 40 -20 7 -11 37 -20 66 -20 39 -1 46 -5 26 -18 -31 -20 67 -82 128 -82 17 0 36 -12 42 -28 6 -15 35 -32 65 -38 32 -7 67 -34 83 -64 16 -31 51 -57 84 -64 30 -6 50 -19 44 -29 -6 -9 3 -23 20 -29 17 -7 29 -34 28 -65 -1 -29 4 -84 11 -123 8 -38 8 -59 2 -45 -7 14 -21 25 -31 25 -26 0 -22 -75 5 -84 27 -9 53 -175 56 -352 0 -80 -6 -122 -19 -114 -13 8 -19 -31 -17 -104 3 -111 4 -113 17 -36 8 44 9 13 3 -70 -7 -82 -11 -217 -8 -300 6 -204 4 -425 -4 -439 -4 -6 0 -78 9 -160 23 -211 -6 -240 -162 -160 -42 21 -90 39 -106 39 -16 0 -43 14 -61 31 -18 19 -31 23 -31 9 0 -14 -12 -11 -30 7 -17 17 -48 36 -70 43 -22 7 -40 21 -40 31 0 11 -17 19 -37 19 -20 0 -51 16 -68 35 -35 39 -34 34 -37 140 -2 64 -4 67 -16 25 -8 -30 -14 7 -15 97 -1 86 6 135 16 120 24 -39 22 8 -5 77 -26 69 -40 738 -16 801 34 89 -2 223 -72 271 -35 24 -60 55 -55 69 5 15 -3 21 -20 14 -15 -6 -52 13 -83 41 -30 28 -63 46 -73 39 -10 -6 -13 3 -7 20 9 24 -1 31 -45 31 -31 0 -82 13 -113 29 -30 16 -51 22 -45 12 6 -9 -7 -13 -29 -7 -22 6 -35 17 -30 25 8 14 -132 83 -178 89 -10 1 -25 20 -34 42 -8 22 -16 29 -17 15 -2 -35 -51 -31 -82 6 -45 55 75 188 181 200 43 5 99 35 90 49 -6 9 10 23 35 31 25 8 57 24 72 36 15 11 45 24 66 27 22 3 64 19 93 36 54 30 128 25 171 -11z"/> <path d="M5890 9920 c-22 -9 -71 -13 -110 -8 l-70 10 80 -40 c98 -50 110 -50 183 -11 l57 32 -70 -13 c-66 -11 -68 -10 -31 19 42 34 25 38 -39 11z"/> <path d="M7860 7552 c-49 -25 -130 -68 -180 -96 -112 -63 -451 -246 -990 -535 -88 -48 -178 -97 -201 -111 -22 -14 -112 -63 -200 -109 -87 -47 -188 -117 -224 -156 l-65 -72 4 -511 c2 -326 8 -443 15 -322 6 107 17 172 25 150 7 -22 13 55 13 170 -1 332 4 400 23 340 l16 -50 2 54 c3 80 40 149 94 173 26 12 48 31 48 43 0 11 14 20 30 20 17 0 30 9 30 20 0 11 14 20 30 20 17 0 30 9 30 20 0 11 11 20 23 20 13 0 40 14 59 32 19 17 47 33 61 36 51 11 107 40 146 76 21 20 48 34 61 31 12 -3 59 25 106 62 46 36 117 75 157 86 41 12 85 31 100 44 71 63 91 76 100 66 6 -6 29 6 50 25 21 20 61 34 88 31 51 -6 68 20 24 38 -15 6 -12 10 9 11 18 1 45 13 60 27 16 14 117 70 227 125 109 55 211 116 226 136 14 19 48 59 75 88 76 82 62 86 -72 18z"/> <path d="M5891 6729 c-76 -77 37 -102 162 -37 54 27 77 46 52 41 -25 -5 -45 -1 -45 9 0 32 -57 19 -78 -17 -20 -33 -21 -33 -21 0 -1 43 -28 45 -70 4z"/> <path d="M3820 5991 c0 -67 36 -84 58 -27 20 53 11 76 -29 76 -17 0 -29 -20 -29 -49z"/> <path d="M1980 4688 c0 -41 220 -166 267 -152 10 3 13 -7 7 -22 -12 -32 34 -64 120 -83 72 -15 157 -87 172 -143 8 -33 10 -33 12 -3 4 61 40 38 53 -35 8 -43 25 -70 43 -70 18 0 26 -12 19 -29 -6 -17 1 -42 16 -57 15 -15 31 -44 35 -65 5 -24 15 -7 24 46 28 152 -35 243 -236 343 -104 52 -181 78 -204 71 -29 -10 -31 -8 -10 7 21 15 0 33 -90 77 -65 31 -122 62 -128 69 -18 22 -100 60 -100 46z"/> <path d="M9220 4346 c-77 -29 -150 -157 -119 -208 14 -21 18 -17 19 18 0 26 34 79 78 125 78 78 81 87 22 65z"/> <path d="M2770 10283 c-33 -20 -204 -111 -380 -202 -176 -91 -428 -222 -560 -291 -132 -68 -436 -225 -675 -349 l-435 -224 0 -1314 0 -1315 145 -71 c80 -39 324 -162 542 -275 219 -112 408 -200 420 -196 75 26 -56 178 -227 264 -60 30 -114 61 -120 69 -5 8 -50 32 -100 55 -49 22 -126 57 -170 78 -44 20 -84 37 -90 37 -42 4 -160 101 -160 132 0 24 -10 34 -27 27 -21 -8 -25 3 -18 41 6 29 0 51 -12 51 -15 0 -22 227 -22 760 0 477 7 760 20 760 10 0 19 36 19 80 0 44 -9 80 -20 80 -12 0 -20 96 -20 247 0 206 5 246 30 246 17 0 30 -9 30 -21 0 -12 9 -9 19 7 16 26 21 25 32 -4 7 -19 21 -30 29 -25 9 6 30 -3 47 -20 17 -16 41 -30 54 -30 13 0 19 -12 13 -27 -8 -19 4 -24 41 -17 35 7 47 3 37 -13 -9 -14 1 -23 27 -23 22 0 41 -9 41 -20 0 -11 22 -20 49 -20 49 0 111 -46 111 -84 0 -12 21 -15 52 -7 33 8 47 5 38 -8 -7 -12 4 -21 26 -21 21 0 54 -18 74 -40 20 -22 66 -50 103 -64 39 -14 57 -30 44 -38 -12 -7 15 -20 60 -28 46 -7 83 -22 83 -32 0 -10 18 -18 40 -18 22 0 40 -13 40 -30 0 -17 18 -30 40 -30 22 0 40 -9 40 -19 0 -11 14 -15 30 -8 17 6 30 2 30 -10 0 -11 31 -32 69 -45 38 -14 64 -33 59 -42 -6 -9 6 -16 27 -16 85 0 271 -124 294 -196 8 -25 22 -40 31 -34 43 27 56 -33 98 -460 l16 -160 7 240 c14 418 -2 503 -104 567 -48 30 -257 143 -957 518 -918 492 -914 489 -750 514 49 7 94 22 101 32 6 11 29 19 51 19 22 0 35 9 28 20 -7 11 2 14 21 7 18 -7 39 -4 46 7 7 12 63 46 123 76 61 30 117 65 125 78 10 15 14 13 15 -6 0 -24 5 -24 35 1 19 16 69 46 110 68 41 21 75 44 75 51 0 8 33 20 74 27 54 11 66 19 45 32 -22 14 -16 18 23 19 28 0 68 18 88 40 19 21 43 35 51 29 9 -5 22 -1 28 10 7 10 24 15 39 9 15 -6 41 4 58 21 17 17 41 31 53 31 11 0 21 8 21 18 0 18 60 42 129 51 21 3 42 15 47 28 4 13 21 23 37 23 16 0 24 8 18 19 -6 10 9 24 34 31 73 21 172 70 185 91 7 10 38 19 69 19 34 0 62 13 69 33 10 25 31 30 97 21 47 -6 68 -6 47 0 -28 7 -31 14 -12 26 27 17 140 -14 140 -39 0 -8 45 -35 100 -61 55 -26 100 -60 100 -76 0 -21 7 -23 26 -7 29 24 119 8 103 -18 -14 -23 165 -125 190 -109 12 7 21 1 21 -12 0 -14 5 -19 12 -13 6 7 48 -1 93 -17 81 -28 155 -22 155 13 0 27 -123 101 -475 283 -173 89 -339 179 -368 199 -67 46 -111 46 -187 0z"/> <path d="M8810 10243 c-77 -41 -265 -140 -418 -220 -376 -195 -404 -216 -360 -265 39 -43 154 -34 204 15 15 15 40 27 57 27 17 0 23 10 15 23 -9 14 -5 18 8 9 29 -18 189 64 174 89 -7 10 0 14 16 8 15 -6 39 3 53 20 14 17 39 31 54 31 16 0 94 34 173 75 153 79 214 97 214 65 0 -11 17 -20 39 -20 21 0 50 -12 65 -26 61 -59 172 -115 181 -90 5 16 40 -2 97 -49 85 -69 190 -125 223 -118 8 2 15 -7 15 -18 0 -12 9 -16 20 -9 11 7 20 3 20 -7 0 -20 52 -44 88 -41 10 1 23 -6 30 -15 6 -9 89 -57 182 -105 94 -49 175 -95 180 -103 11 -15 97 -46 135 -48 13 0 24 -9 23 -20 -2 -22 205 -131 226 -119 7 5 19 0 25 -11 16 -25 168 -93 249 -110 34 -8 67 -22 73 -33 6 -10 35 -18 65 -18 56 0 -52 -86 -206 -163 -33 -17 -96 -51 -140 -76 -44 -26 -147 -82 -230 -127 -82 -44 -253 -136 -380 -204 -126 -69 -311 -167 -410 -220 -550 -291 -495 -176 -498 -1044 -2 -730 12 -874 38 -391 9 162 19 331 22 375 3 44 6 181 8 305 1 144 10 225 23 225 12 0 16 14 10 30 -7 17 -3 30 8 30 10 0 18 7 16 15 -12 54 36 122 123 174 54 32 94 65 89 73 -5 8 16 20 47 27 31 7 108 44 171 82 63 38 124 69 135 69 27 0 213 100 188 101 -28 1 74 57 105 58 14 1 43 19 64 40 21 21 74 48 118 60 43 12 89 35 103 51 14 17 37 30 51 30 15 0 35 15 45 33 13 22 36 29 71 23 36 -7 53 -2 53 16 0 15 23 33 52 40 38 10 45 18 25 30 -36 23 -11 22 50 -1 43 -16 51 -12 61 30 22 84 170 138 175 63 6 -98 -8 -225 -27 -249 -15 -17 -14 -25 3 -25 18 0 22 -233 17 -980 -4 -674 -13 -980 -27 -980 -12 0 -41 -18 -64 -40 -24 -22 -64 -43 -89 -48 -25 -4 -44 -18 -40 -31 3 -16 -9 -19 -35 -11 -30 9 -41 4 -41 -21 0 -29 -5 -30 -34 -6 -30 24 -32 23 -19 -12 8 -22 9 -34 2 -26 -8 7 -48 -4 -91 -26 -42 -21 -89 -39 -105 -39 -16 0 -34 -13 -40 -28 -7 -19 -26 -25 -54 -17 -32 8 -42 3 -35 -17 6 -18 -19 -40 -72 -61 -45 -19 -80 -44 -77 -57 4 -13 -2 -18 -13 -11 -10 6 -42 -18 -70 -54 -29 -36 -62 -76 -73 -90 -14 -17 -14 -25 1 -25 12 0 16 -10 8 -23 -33 -54 246 67 602 262 55 30 201 107 325 171 l225 116 0 1317 c0 891 -7 1317 -21 1317 -11 0 -135 62 -275 137 -140 75 -416 221 -614 323 -198 102 -396 205 -440 230 -44 25 -224 119 -400 210 -176 90 -329 172 -339 182 -30 28 -52 22 -201 -59z"/> <path d="M9431 8458 c10 -15 -7 -19 -53 -10 -38 6 -57 6 -43 0 39 -18 30 -47 -20 -67 -37 -15 -39 -19 -8 -20 20 0 63 18 95 40 59 42 76 79 37 79 -12 0 -15 -10 -8 -22z"/> <path d="M2556 8340 c26 -22 60 -33 80 -26 19 7 27 5 19 -4 -27 -29 143 -92 187 -69 56 30 47 55 -17 46 -48 -7 -50 -5 -15 13 33 16 27 19 -35 14 -41 -3 -75 1 -75 10 0 9 -26 16 -59 16 -32 0 -64 9 -71 20 -7 11 -23 20 -36 19 -13 0 -3 -18 22 -39z"/> <path d="M9012 8297 c10 -17 -12 -20 -84 -11 l-98 13 88 -41 c88 -42 222 -40 222 3 0 10 15 19 34 19 28 0 29 4 8 25 -22 20 -29 20 -36 0 -11 -30 -86 -34 -86 -5 0 11 -14 20 -31 20 -19 0 -26 -9 -17 -23z"/> <path d="M3687 7190 c0 -88 3 -122 8 -74 4 47 4 119 0 160 -5 40 -8 2 -8 -86z"/> <path d="M4351 3972 c45 -31 243 -137 719 -382 396 -204 598 -311 748 -395 92 -52 113 -58 148 -36 77 48 183 105 412 222 128 65 290 150 361 190 130 72 339 185 542 294 62 33 134 76 160 97 l49 38 -73 -5 c-40 -3 -68 -13 -62 -23 6 -11 -4 -13 -22 -6 -22 8 -39 2 -46 -17 -7 -17 -25 -26 -41 -20 -16 6 -40 4 -53 -4 -13 -8 -27 -15 -33 -16 -30 -3 -140 -73 -140 -88 0 -10 -22 -14 -49 -9 -40 7 -47 2 -37 -25 10 -26 5 -31 -21 -21 -18 7 -33 5 -33 -5 0 -10 -32 -28 -70 -41 -39 -13 -82 -34 -95 -48 -14 -13 -81 -54 -150 -91 -69 -37 -125 -75 -125 -86 0 -11 -14 -8 -31 6 -26 22 -33 19 -42 -17 -12 -45 -72 -75 -107 -54 -11 7 -20 3 -20 -9 0 -11 -17 -21 -38 -21 -51 0 -104 -21 -94 -37 4 -7 -5 -25 -20 -39 -15 -14 -28 -17 -28 -7 0 11 -16 17 -35 14 -19 -3 -35 -17 -35 -31 0 -15 -11 -30 -25 -35 -14 -5 -25 2 -25 14 0 16 -11 16 -39 2 -46 -25 -62 -26 -59 -6 8 50 -5 69 -42 59 -22 -6 -40 -1 -40 10 0 11 -13 15 -30 9 -17 -7 -27 -1 -25 12 3 13 -13 25 -35 27 -58 5 -195 70 -230 109 -16 18 -148 69 -165 64 -8 -3 -15 4 -15 15 0 11 -13 20 -30 20 -16 0 -30 7 -30 16 0 20 -170 104 -209 104 -16 0 -34 19 -42 43 -9 28 -18 34 -28 19 -11 -18 -21 -16 -40 7 -14 17 -43 31 -63 31 -24 0 -33 10 -25 30 6 17 4 31 -6 32 -84 8 -152 23 -167 38 -32 32 -172 80 -235 80 -69 0 -71 -2 -34 -28z"/> <path d="M3957 3778 c-14 -9 -4 -24 25 -40 143 -77 725 -376 1292 -662 l645 -325 185 94 c176 90 323 167 786 414 110 59 261 139 337 178 75 40 126 75 113 80 -12 4 -40 -9 -62 -29 -35 -31 -43 -32 -59 -7 -16 25 -18 25 -19 -1 0 -30 -84 -80 -134 -80 -14 0 -26 -9 -26 -19 0 -11 -31 -25 -70 -32 -38 -8 -70 -21 -70 -31 0 -10 -16 -18 -36 -18 -20 0 -45 -9 -55 -19 -11 -11 -38 -23 -59 -27 -68 -13 -110 -37 -99 -56 6 -10 -2 -13 -17 -7 -16 6 -69 -11 -119 -39 -49 -28 -97 -44 -106 -36 -8 8 -9 3 -1 -11 9 -16 1 -25 -24 -25 -21 0 -61 -18 -89 -40 -28 -22 -68 -40 -88 -41 -20 0 -54 -13 -75 -29 -21 -16 -46 -24 -55 -18 -9 6 -17 2 -17 -9 0 -47 -133 -37 -250 19 -66 32 -131 58 -145 58 -14 0 -25 8 -25 17 0 29 -136 86 -205 86 -19 0 -35 8 -35 17 0 15 -213 127 -512 270 -221 106 -400 199 -409 213 -6 9 -58 31 -115 48 -57 17 -104 38 -104 48 0 9 -22 22 -50 29 -27 7 -50 21 -50 32 0 12 -19 12 -51 0 -62 -24 -74 -25 -62 -4 12 19 -60 21 -90 2z"/> <path d="M7860 3692 c-97 -48 -838 -452 -1230 -672 -132 -73 -316 -173 -408 -222 -277 -145 -254 -28 -283 -1478 -13 -611 -26 -1114 -31 -1118 -4 -5 -34 19 -66 53 -33 34 -54 67 -47 73 6 7 -3 12 -22 12 -18 0 -33 7 -33 15 0 30 -326 216 -365 208 -8 -2 -15 7 -15 18 0 12 -9 16 -21 8 -12 -7 -37 5 -56 27 -19 22 -52 43 -74 47 -21 4 -53 22 -70 41 -17 18 -58 40 -90 47 -66 16 -164 66 -205 104 -15 14 -43 25 -64 25 -20 0 -40 10 -44 23 -5 13 -29 26 -54 30 -25 4 -84 34 -132 67 -48 33 -101 60 -119 60 -17 0 -31 9 -31 20 0 11 -13 20 -30 20 -16 0 -30 7 -30 15 0 8 -41 33 -90 54 -50 22 -90 46 -90 54 0 7 -19 8 -43 2 -30 -8 -40 -3 -33 17 5 16 -14 43 -45 62 -63 38 -66 66 -61 614 1 159 -4 283 -11 276 -7 -8 -25 -4 -40 9 -15 12 -27 14 -27 4 0 -9 -9 -4 -19 13 -48 74 -60 -27 -62 -509 l-2 -498 207 -108 c113 -59 346 -180 516 -269 329 -172 869 -457 1172 -619 181 -96 242 -114 279 -79 10 10 154 90 319 177 820 434 1116 591 1290 684 105 57 242 127 305 157 l116 54 -6 513 c-3 283 -11 520 -19 527 -27 28 -126 -23 -132 -67 -4 -24 -16 -38 -28 -31 -13 9 -16 -13 -8 -64 46 -295 26 -689 -37 -732 -12 -8 -22 -24 -23 -35 -2 -12 -4 -31 -5 -42 -2 -12 -11 -16 -21 -11 -21 14 -138 -43 -192 -93 -21 -20 -60 -42 -85 -48 -25 -6 -45 -26 -45 -44 -1 -24 -5 -26 -17 -8 -14 23 -228 -70 -263 -115 -18 -23 -205 -120 -230 -120 -14 0 -36 -14 -50 -30 -14 -17 -52 -30 -85 -30 -49 0 -56 -5 -36 -28 16 -20 16 -33 2 -41 -12 -8 -21 -5 -21 5 0 10 -42 -3 -93 -29 -52 -26 -113 -47 -135 -47 -35 -1 -37 -4 -12 -20 30 -19 7 -31 -45 -22 -8 1 -15 -9 -15 -21 0 -13 -5 -18 -12 -12 -6 7 -55 -14 -108 -45 -159 -94 -301 -87 -220 10 16 19 17 30 4 30 -34 0 -15 680 19 704 21 15 22 21 2 29 -14 6 -25 22 -25 37 0 15 11 32 25 38 20 10 20 14 0 24 -28 13 -12 349 18 369 9 6 8 41 -3 78 -10 37 -14 74 -8 84 5 9 1 48 -9 87 -11 38 -13 70 -4 70 8 0 15 88 15 195 1 267 7 299 66 328 28 14 78 51 113 83 39 36 73 53 88 43 16 -10 20 -7 11 8 -9 14 -2 23 17 23 17 0 31 10 31 23 0 13 6 18 13 11 7 -8 25 -4 40 9 15 12 27 16 27 8 0 -7 29 9 65 36 36 26 96 64 134 83 38 19 80 45 94 58 74 65 91 75 117 65 15 -6 31 0 35 13 6 18 17 17 42 -3 21 -18 33 -20 33 -5 0 12 -9 22 -20 22 -11 0 -20 10 -20 22 0 12 13 17 29 11 17 -6 41 0 55 14 72 69 162 117 205 108 29 -5 44 0 39 13 -14 37 127 121 217 130 8 1 15 15 15 30 0 19 14 25 43 17 36 -9 41 -5 30 24 -10 26 -6 32 15 24 16 -6 40 2 53 18 13 16 37 29 52 29 51 0 229 185 203 210 -3 4 -47 -13 -96 -38z"/> <path d="M5742 2665 c23 -41 49 -84 58 -95 9 -11 21 -38 27 -60 6 -22 6 1 0 50 -8 62 -27 104 -62 135 -69 61 -71 57 -23 -30z"/> </g> </svg>
